<?xml version="1.0" standalone="no"?><!DOCTYPE svg PUBLIC "-//W3C//DTD SVG 1.1//EN" "http://www.w3.org/Graphics/SVG/1.1/DTD/svg11.dtd"><svg t="1616069555550" class="icon" viewBox="0 0 1024 1024" version="1.1" xmlns="http://www.w3.org/2000/svg" p-id="17889" xmlns:xlink="http://www.w3.org/1999/xlink" width="200" height="200"><defs><style type="text/css"></style></defs><path d="M604.2 922.7h-498c-24.7 0-44.8-20.1-44.8-44.8V233.5c0-74.6 60.7-135.2 135.2-135.2h317.2C588.4 98.3 649 159 649 233.5v644.4c0 24.7-20 44.8-44.8 44.8zM151 833.1h408.4V233.5c0-25.2-20.5-45.6-45.6-45.6H196.6c-25.2 0-45.6 20.5-45.6 45.6v599.6z" fill="#41D7C7" p-id="17890"></path><path d="M835.5 922.7c-67.2 0-121.9-54.7-121.9-121.9V586.9c0-17.8-14.5-32.3-32.3-32.3h-77.1c-24.7 0-44.8-20.1-44.8-44.8 0-24.7 20.1-44.8 44.8-44.8h77.1c67.2 0 121.9 54.7 121.9 121.9v213.9c0 17.8 14.5 32.3 32.3 32.3 17.8 0 32.3-14.5 32.3-32.3V368.6L722.3 169.5c-14.6-20-10.3-48 9.7-62.6 20-14.6 48-10.3 62.6 9.7l154.2 210.9c5.6 7.7 8.6 16.9 8.6 26.4v446.8c0.1 67.3-54.6 122-121.9 122z" fill="#41D7C7" p-id="17891"></path><path d="M851.9 425c-24.7 0-44.8-20.1-44.8-44.8V274.7c0-24.7 20.1-44.8 44.8-44.8 24.7 0 44.8 20.1 44.8 44.8v105.5c0 24.7-20.1 44.8-44.8 44.8zM604.2 425H242.9c-24.7 0-44.8-20.1-44.8-44.8 0-24.7 20.1-44.8 44.8-44.8h361.3c24.7 0 44.8 20.1 44.8 44.8 0 24.7-20 44.8-44.8 44.8z" fill="#41D7C7" p-id="17892"></path></svg>