<?xml version="1.0" standalone="no"?><!DOCTYPE svg PUBLIC "-//W3C//DTD SVG 1.1//EN" "http://www.w3.org/Graphics/SVG/1.1/DTD/svg11.dtd"><svg t="1616070265907" class="icon" viewBox="0 0 1024 1024" version="1.1" xmlns="http://www.w3.org/2000/svg" p-id="31692" xmlns:xlink="http://www.w3.org/1999/xlink" width="200" height="200"><defs><style type="text/css"></style></defs><path d="M241 382h536c17.673 0 32 14.327 32 32 0 17.673-14.327 32-32 32H241c-17.673 0-32-14.327-32-32 0-17.673 14.327-32 32-32zM241 664h96c17.673 0 32 14.327 32 32 0 17.673-14.327 32-32 32h-96c-17.673 0-32-14.327-32-32 0-17.673 14.327-32 32-32z" p-id="31693" fill="#F2A234"></path><path d="M888 155c35.346 0 64 28.654 64 64v587c0 35.346-28.654 64-64 64H136c-35.346 0-64-28.654-64-64V219c0-35.346 28.654-64 64-64h752z m0 64H136v587h752V219z" p-id="31694" fill="#F2A234"></path></svg>