<?xml version="1.0" standalone="no"?><!DOCTYPE svg PUBLIC "-//W3C//DTD SVG 1.1//EN" "http://www.w3.org/Graphics/SVG/1.1/DTD/svg11.dtd"><svg t="1616069294161" class="icon" viewBox="0 0 1024 1024" version="1.1" xmlns="http://www.w3.org/2000/svg" p-id="13742" xmlns:xlink="http://www.w3.org/1999/xlink" width="200" height="200"><defs><style type="text/css"></style></defs><path d="M911.872 474.23488l-232.96-166.84032a27.38688 27.38688 0 0 0-5.6064-3.04128V161.90464A80.04096 80.04096 0 0 0 593.34144 81.92H177.21344A80.04096 80.04096 0 0 0 97.28 161.90464v705.23904a80.04096 80.04096 0 0 0 79.92832 79.96928h468.21888c0.26624 0 0.512 0.0768 0.77312 0.0768H843.776a88.16128 88.16128 0 0 0 88.064-88.08448v-345.99424a47.90272 47.90272 0 0 0-19.968-38.87616z m-293.888 417.53088H177.21344a24.64256 24.64256 0 0 1-24.60672-24.62208V161.90464a24.64256 24.64256 0 0 1 24.61184-24.62208h416.128a24.64256 24.64256 0 0 1 24.60672 24.62208v729.86112z m258.56-32.66048a32.768 32.768 0 0 1-32.72192 32.73728H673.28V371.44576l203.264 145.54624v342.11328z" fill="#2966C1" p-id="13743"></path><path d="M481.12128 357.77536h-184.7808a27.48416 27.48416 0 0 1 0-54.9632h184.7808a27.48416 27.48416 0 0 1 0 54.9632z m0 178.71872h-184.7808a27.48416 27.48416 0 0 1 0-54.9632h184.7808a27.48416 27.48416 0 0 1 0 54.9632z m0 177.54112h-184.7808a27.48416 27.48416 0 0 1 0-54.9632h184.7808a27.48416 27.48416 0 0 1 0 54.9632z" fill="#FD9A16" p-id="13744"></path></svg>